ISO-10303-21;

HEADER;
FILE_DESCRIPTION((' '),'2;1');
FILE_NAME( 'Abstandzbolzen Stahl verzinkt I-I M4_-_Ettinger - 5.04.251 (M4x25).stp',
           '2022-09-10T18:45:04',
           (' '),
           ('--- Datakit www.datakit.com---'),
           ' Datakit CrossCadWare V2022.3  Jun 15 2022',
           'DATAKIT 2022 (c)',
           ' ');
FILE_SCHEMA(('AP242_MANAGED_MODEL_BASED_3D_ENGINEERING_MIM_LF { 1 0 10303 442 1 1 4 }'));
ENDSEC;

DATA;
#1=APPLICATION_CONTEXT('Managed model based 3d engineering');
#2=APPLICATION_PROTOCOL_DEFINITION('international standard','ap242_managed_model_based_3d_engineering',2013,#1);
#3=(LENGTH_UNIT()NAMED_UNIT(*)SI_UNIT(.MILLI.,.METRE.));
#4=(NAMED_UNIT(*)PLANE_ANGLE_UNIT()SI_UNIT($,.RADIAN.));
#5=( GEOMETRIC_REPRESENTATION_CONTEXT(3)
       GLOBAL_UNCERTAINTY_ASSIGNED_CONTEXT((#6)) GLOBAL_UNIT_ASSIGNED_CONTEXT
  ((#3,#4)) REPRESENTATION_CONTEXT('Context #1',
  '3D Context with UNIT and UNCERTAINTY') );
#6=UNCERTAINTY_MEASURE_WITH_UNIT(LENGTH_MEASURE(0.005),#3,'distance_accuracy_value','Confusion accuracy');
#7=PRODUCT_CONTEXT('',#1,'mechanical');
#8=PRODUCT('Abstandzbolzen Stahl verzinkt I-I M4_-_Ettinger - 5.04.251 (M4x25)','','',(#7));
#9=PRODUCT_DEFINITION_FORMATION('','',#8);
#10=PRODUCT_DEFINITION_CONTEXT('part definition',#1,'design');
#11=PRODUCT_DEFINITION('design','',#9,#10);
#12=PRODUCT_DEFINITION_SHAPE('','',#11);
#13=PRODUCT_CATEGORY('part',$);
#14=PRODUCT_RELATED_PRODUCT_CATEGORY('part',$,(#8));
#15=PRODUCT_CATEGORY_RELATIONSHIP('','',#13,#14);
#16=CARTESIAN_POINT('',(0.0,25.0,-3.2517085657));
#17=VERTEX_POINT('',#16);
#18=CARTESIAN_POINT('',(0.0,25.0,0.0));
#19=DIRECTION('',(-0.0,-1.0,-0.0));
#20=DIRECTION('',(0.0,0.0,-1.0));
#21=AXIS2_PLACEMENT_3D('',#18,#19,#20);
#22=CIRCLE('',#21,3.2517085657);
#23=EDGE_CURVE('n° 64',#17,#17,#22,.T.);
#24=ORIENTED_EDGE('',*,*,#23,.T.);
#25=EDGE_LOOP('',(#24));
#26=FACE_OUTER_BOUND('',#25,.T.);
#27=CARTESIAN_POINT('',(-4.0414518843,24.5440414824,0.0));
#28=VERTEX_POINT('',#27);
#29=CARTESIAN_POINT('',(-2.0207259422,24.5440414824,3.5));
#30=VERTEX_POINT('',#29);
#31=CARTESIAN_POINT('',(-4.0415673544,24.5439748129,-0.0002));
#32=CARTESIAN_POINT('',(-3.8664868422,24.6450662576,0.3030483425));
#33=CARTESIAN_POINT('',(-3.6866410913,24.7288822747,0.6145503206));
#34=CARTESIAN_POINT('',(-3.3262833852,24.8379610871,1.2387081765));
#35=CARTESIAN_POINT('',(-3.1414746223,24.8635720105,1.5588063436));
#36=CARTESIAN_POINT('',(-2.8007600842,24.8474453177,2.1489412343));
#37=CARTESIAN_POINT('',(-2.6411801693,24.814279328,2.4253417549));
#38=CARTESIAN_POINT('',(-2.3286123575,24.7067476479,2.9667250856));
#39=CARTESIAN_POINT('',(-2.1729673982,24.6319456646,3.2363100631));
#40=CARTESIAN_POINT('',(-2.0206104721,24.5439748129,3.5002));
#41=B_SPLINE_CURVE_WITH_KNOTS('',3,(#31,#32,#33,#34,#35,#36,#37,#38,#39,#40),.UNSPECIFIED.,.F.,.U.,
 (4,2,2,2,4),(0.0,0.2673495632,0.5346991263,0.7673495632,1.0),.UNSPECIFIED.);
#42=EDGE_CURVE('n° 250',#28,#30,#41,.T.);
#43=ORIENTED_EDGE('',*,*,#42,.T.);
#44=CARTESIAN_POINT('',(2.0207259422,24.5440414824,3.5));
#45=VERTEX_POINT('',#44);
#46=CARTESIAN_POINT('',(-2.0207259422,24.5440414824,3.5));
#47=CARTESIAN_POINT('',(-1.8519260215,24.5927698222,3.5));
#48=CARTESIAN_POINT('',(-1.6783396296,24.6381729993,3.5));
#49=CARTESIAN_POINT('',(-1.1714879963,24.7539035294,3.5));
#50=CARTESIAN_POINT('',(-0.8266869292,24.8103418807,3.5));
#51=CARTESIAN_POINT('',(-0.1404184193,24.8645673636,3.5));
#52=CARTESIAN_POINT('',(0.2095729205,24.8624924416,3.5));
#53=CARTESIAN_POINT('',(1.0478311823,24.7870435294,3.5));
#54=CARTESIAN_POINT('',(1.5427980474,24.6820073818,3.5));
#55=CARTESIAN_POINT('',(2.0207259422,24.5440414824,3.5));
#56=B_SPLINE_CURVE_WITH_KNOTS('',3,(#46,#47,#48,#49,#50,#51,#52,#53,#54,#55),.UNSPECIFIED.,.F.,.U.,
 (4,2,2,2,4),(0.0,0.1290392662,0.3818434073,0.6346475485,1.0),.UNSPECIFIED.);
#57=EDGE_CURVE('n° 235',#30,#45,#56,.T.);
#58=ORIENTED_EDGE('',*,*,#57,.T.);
#59=CARTESIAN_POINT('',(4.0414518843,24.5440414824,0.0));
#60=VERTEX_POINT('',#59);
#61=CARTESIAN_POINT('',(2.0206104721,24.5439748129,3.5002));
#62=CARTESIAN_POINT('',(2.1956909843,24.6450662576,3.1969516575));
#63=CARTESIAN_POINT('',(2.3755367352,24.7288822747,2.8854496794));
#64=CARTESIAN_POINT('',(2.7358944413,24.8379610871,2.2612918235));
#65=CARTESIAN_POINT('',(2.9207032042,24.8635720105,1.9411936564));
#66=CARTESIAN_POINT('',(3.2614177423,24.8474453177,1.3510587657));
#67=CARTESIAN_POINT('',(3.4209976572,24.814279328,1.0746582451));
#68=CARTESIAN_POINT('',(3.733565469,24.7067476479,0.5332749144));
#69=CARTESIAN_POINT('',(3.8892104283,24.6319456646,0.2636899369));
#70=CARTESIAN_POINT('',(4.0415673544,24.5439748129,-0.0002));
#71=B_SPLINE_CURVE_WITH_KNOTS('',3,(#61,#62,#63,#64,#65,#66,#67,#68,#69,#70),.UNSPECIFIED.,.F.,.U.,
 (4,2,2,2,4),(0.0,0.2673495632,0.5346991263,0.7673495632,1.0),.UNSPECIFIED.);
#72=EDGE_CURVE('n° 238',#45,#60,#71,.T.);
#73=ORIENTED_EDGE('',*,*,#72,.T.);
#74=CARTESIAN_POINT('',(2.0207259422,24.5440414824,-3.5));
#75=VERTEX_POINT('',#74);
#76=CARTESIAN_POINT('',(4.0415673544,24.5439748129,0.0002));
#77=CARTESIAN_POINT('',(3.8664868422,24.6450662576,-0.3030483425));
#78=CARTESIAN_POINT('',(3.6866410913,24.7288822747,-0.6145503206));
#79=CARTESIAN_POINT('',(3.3262833852,24.8379610871,-1.2387081765));
#80=CARTESIAN_POINT('',(3.1414746223,24.8635720105,-1.5588063436));
#81=CARTESIAN_POINT('',(2.8007600842,24.8474453177,-2.1489412343));
#82=CARTESIAN_POINT('',(2.6411801693,24.814279328,-2.4253417549));
#83=CARTESIAN_POINT('',(2.3286123575,24.7067476479,-2.9667250856));
#84=CARTESIAN_POINT('',(2.1729673982,24.6319456646,-3.2363100631));
#85=CARTESIAN_POINT('',(2.0206104721,24.5439748129,-3.5002));
#86=B_SPLINE_CURVE_WITH_KNOTS('',3,(#76,#77,#78,#79,#80,#81,#82,#83,#84,#85),.UNSPECIFIED.,.F.,.U.,
 (4,2,2,2,4),(0.0,0.2673495632,0.5346991263,0.7673495632,1.0),.UNSPECIFIED.);
#87=EDGE_CURVE('n° 241',#60,#75,#86,.T.);
#88=ORIENTED_EDGE('',*,*,#87,.T.);
#89=CARTESIAN_POINT('',(-2.0207259422,24.5440414824,-3.5));
#90=VERTEX_POINT('',#89);
#91=CARTESIAN_POINT('',(2.0207259422,24.5440414824,-3.5));
#92=CARTESIAN_POINT('',(1.5427980474,24.6820073818,-3.5));
#93=CARTESIAN_POINT('',(1.0478311823,24.7870435294,-3.5));
#94=CARTESIAN_POINT('',(0.2095729205,24.8624924416,-3.5));
#95=CARTESIAN_POINT('',(-0.1404184193,24.8645673636,-3.5));
#96=CARTESIAN_POINT('',(-0.8266869292,24.8103418807,-3.5));
#97=CARTESIAN_POINT('',(-1.1714879963,24.7539035294,-3.5));
#98=CARTESIAN_POINT('',(-1.6783396296,24.6381729993,-3.5));
#99=CARTESIAN_POINT('',(-1.8519260215,24.5927698222,-3.5));
#100=CARTESIAN_POINT('',(-2.0207259422,24.5440414824,-3.5));
#101=B_SPLINE_CURVE_WITH_KNOTS('',3,(#91,#92,#93,#94,#95,#96,#97,#98,#99,#100),.UNSPECIFIED.,.F.,.U.,
 (4,2,2,2,4),(0.0,0.3653524515,0.6181565927,0.8709607338,1.0),.UNSPECIFIED.);
#102=EDGE_CURVE('n° 244',#75,#90,#101,.T.);
#103=ORIENTED_EDGE('',*,*,#102,.T.);
#104=CARTESIAN_POINT('',(-2.0206104721,24.5439748129,-3.5002));
#105=CARTESIAN_POINT('',(-2.1956909843,24.6450662576,-3.1969516575));
#106=CARTESIAN_POINT('',(-2.3755367352,24.7288822747,-2.8854496794));
#107=CARTESIAN_POINT('',(-2.7358944413,24.8379610871,-2.2612918235));
#108=CARTESIAN_POINT('',(-2.9207032042,24.8635720105,-1.9411936564));
#109=CARTESIAN_POINT('',(-3.2614177423,24.8474453177,-1.3510587657));
#110=CARTESIAN_POINT('',(-3.4209976572,24.814279328,-1.0746582451));
#111=CARTESIAN_POINT('',(-3.733565469,24.7067476479,-0.5332749144));
#112=CARTESIAN_POINT('',(-3.8892104283,24.6319456646,-0.2636899369));
#113=CARTESIAN_POINT('',(-4.0415673544,24.5439748129,0.0002));
#114=B_SPLINE_CURVE_WITH_KNOTS('',3,(#104,#105,#106,#107,#108,#109,#110,#111,#112,#113),.UNSPECIFIED.,.F.,.U.,
 (4,2,2,2,4),(0.0,0.2673495632,0.5346991263,0.7673495632,1.0),.UNSPECIFIED.);
#115=EDGE_CURVE('n° 247',#90,#28,#114,.T.);
#116=ORIENTED_EDGE('',*,*,#115,.T.);
#117=EDGE_LOOP('',(#43,#58,#73,#88,#103,#116));
#118=FACE_BOUND('',#117,.T.);
#119=CARTESIAN_POINT('',(0.0,24.4285714286,0.0));
#120=DIRECTION('',(-0.0,-1.0,-0.0));
#121=DIRECTION('',(0.0,0.0,-1.0));
#122=AXIS2_PLACEMENT_3D('',#119,#120,#121);
#123=CONICAL_SURFACE('',#122,4.2414518843,1.0471975512);
#124=ADVANCED_FACE('n° 176',(#26,#118),#123,.T.);
#125=CARTESIAN_POINT('',(0.0,25.0,2.0));
#126=VERTEX_POINT('',#125);
#127=CARTESIAN_POINT('',(0.0,25.0,0.0));
#128=DIRECTION('',(-0.0,1.0,-0.0));
#129=DIRECTION('',(0.0,0.0,1.0));
#130=AXIS2_PLACEMENT_3D('',#127,#128,#129);
#131=CIRCLE('',#130,2.0);
#132=EDGE_CURVE('n° 491',#126,#126,#131,.T.);
#133=ORIENTED_EDGE('',*,*,#132,.F.);
#134=EDGE_LOOP('',(#133));
#135=FACE_OUTER_BOUND('',#134,.T.);
#136=ORIENTED_EDGE('',*,*,#23,.F.);
#137=EDGE_LOOP('',(#136));
#138=FACE_BOUND('',#137,.T.);
#139=CARTESIAN_POINT('',(0.0,25.0,0.0));
#140=DIRECTION('',(0.0,1.0,0.0));
#141=DIRECTION('',(0.0,-0.0,1.0));
#142=AXIS2_PLACEMENT_3D('',#139,#140,#141);
#143=PLANE('',#142);
#144=ADVANCED_FACE('n° 72',(#135,#138),#143,.T.);
#145=CARTESIAN_POINT('',(-2.0207259422,0.4559585176,3.5));
#146=VERTEX_POINT('',#145);
#147=CARTESIAN_POINT('',(-2.0207259422,25.0,3.5));
#148=DIRECTION('',(-0.0,-1.0,-0.0));
#149=VECTOR('',#148,1.0);
#150=LINE('',#147,#149);
#151=EDGE_CURVE('n° 251',#30,#146,#150,.T.);
#152=ORIENTED_EDGE('',*,*,#151,.T.);
#153=CARTESIAN_POINT('',(2.0207259422,0.4559585176,3.5));
#154=VERTEX_POINT('',#153);
#155=CARTESIAN_POINT('',(2.0207259422,0.4559585176,3.5));
#156=CARTESIAN_POINT('',(1.5427980474,0.3179926182,3.5));
#157=CARTESIAN_POINT('',(1.0478311823,0.2129564706,3.5));
#158=CARTESIAN_POINT('',(0.2095729205,0.1375075584,3.5));
#159=CARTESIAN_POINT('',(-0.1404184193,0.1354326364,3.5));
#160=CARTESIAN_POINT('',(-0.8266869292,0.1896581193,3.5));
#161=CARTESIAN_POINT('',(-1.1714879963,0.2460964706,3.5));
#162=CARTESIAN_POINT('',(-1.6783396296,0.3618270007,3.5));
#163=CARTESIAN_POINT('',(-1.8519260215,0.4072301778,3.5));
#164=CARTESIAN_POINT('',(-2.0207259422,0.4559585176,3.5));
#165=B_SPLINE_CURVE_WITH_KNOTS('',3,(#155,#156,#157,#158,#159,#160,#161,#162,#163,#164),.UNSPECIFIED.,.F.,.U.,
 (4,2,2,2,4),(0.0,0.3653524515,0.6181565927,0.8709607338,1.0),.UNSPECIFIED.);
#166=EDGE_CURVE('n° 151',#154,#146,#165,.T.);
#167=ORIENTED_EDGE('',*,*,#166,.F.);
#168=CARTESIAN_POINT('',(2.0207259422,25.0,3.5));
#169=DIRECTION('',(0.0,-1.0,0.0));
#170=VECTOR('',#169,1.0);
#171=LINE('',#168,#170);
#172=EDGE_CURVE('n° 236',#45,#154,#171,.T.);
#173=ORIENTED_EDGE('',*,*,#172,.F.);
#174=ORIENTED_EDGE('',*,*,#57,.F.);
#175=EDGE_LOOP('',(#152,#167,#173,#174));
#176=FACE_OUTER_BOUND('',#175,.T.);
#177=CARTESIAN_POINT('',(-2.0207259422,25.0,3.5));
#178=DIRECTION('',(0.0,0.0,1.0));
#179=DIRECTION('',(1.0,0.0,-0.0));
#180=AXIS2_PLACEMENT_3D('',#177,#178,#179);
#181=PLANE('',#180);
#182=ADVANCED_FACE('n° 348',(#176),#181,.T.);
#183=ORIENTED_EDGE('',*,*,#172,.T.);
#184=CARTESIAN_POINT('',(4.0414518843,0.4559585176,0.0));
#185=VERTEX_POINT('',#184);
#186=CARTESIAN_POINT('',(4.0415673544,0.4560251871,-0.0002));
#187=CARTESIAN_POINT('',(3.8664868422,0.3549337424,0.3030483425));
#188=CARTESIAN_POINT('',(3.6866410913,0.2711177253,0.6145503206));
#189=CARTESIAN_POINT('',(3.3262833852,0.1620389129,1.2387081765));
#190=CARTESIAN_POINT('',(3.1414746223,0.1364279895,1.5588063436));
#191=CARTESIAN_POINT('',(2.8007600842,0.1525546823,2.1489412343));
#192=CARTESIAN_POINT('',(2.6411801693,0.185720672,2.4253417549));
#193=CARTESIAN_POINT('',(2.3286123575,0.2932523521,2.9667250856));
#194=CARTESIAN_POINT('',(2.1729673982,0.3680543354,3.2363100631));
#195=CARTESIAN_POINT('',(2.0206104721,0.4560251871,3.5002));
#196=B_SPLINE_CURVE_WITH_KNOTS('',3,(#186,#187,#188,#189,#190,#191,#192,#193,#194,#195),.UNSPECIFIED.,.F.,.U.,
 (4,2,2,2,4),(0.0,0.2673495632,0.5346991263,0.7673495632,1.0),.UNSPECIFIED.);
#197=EDGE_CURVE('n° 148',#185,#154,#196,.T.);
#198=ORIENTED_EDGE('',*,*,#197,.F.);
#199=CARTESIAN_POINT('',(4.0414518843,25.0,0.0));
#200=DIRECTION('',(0.0,-1.0,0.0));
#201=VECTOR('',#200,1.0);
#202=LINE('',#199,#201);
#203=EDGE_CURVE('n° 239',#60,#185,#202,.T.);
#204=ORIENTED_EDGE('',*,*,#203,.F.);
#205=ORIENTED_EDGE('',*,*,#72,.F.);
#206=EDGE_LOOP('',(#183,#198,#204,#205));
#207=FACE_OUTER_BOUND('',#206,.T.);
#208=CARTESIAN_POINT('',(2.0207259422,25.0,3.5));
#209=DIRECTION('',(0.8660254038,-0.0,0.5));
#210=DIRECTION('',(0.5,0.0,-0.8660254038));
#211=AXIS2_PLACEMENT_3D('',#208,#209,#210);
#212=PLANE('',#211);
#213=ADVANCED_FACE('n° 352',(#207),#212,.T.);
#214=ORIENTED_EDGE('',*,*,#203,.T.);
#215=CARTESIAN_POINT('',(2.0207259422,0.4559585176,-3.5));
#216=VERTEX_POINT('',#215);
#217=CARTESIAN_POINT('',(2.0206104721,0.4560251871,-3.5002));
#218=CARTESIAN_POINT('',(2.1956909843,0.3549337424,-3.1969516575));
#219=CARTESIAN_POINT('',(2.3755367352,0.2711177253,-2.8854496794));
#220=CARTESIAN_POINT('',(2.7358944413,0.1620389129,-2.2612918235));
#221=CARTESIAN_POINT('',(2.9207032042,0.1364279895,-1.9411936564));
#222=CARTESIAN_POINT('',(3.2614177423,0.1525546823,-1.3510587657));
#223=CARTESIAN_POINT('',(3.4209976572,0.185720672,-1.0746582451));
#224=CARTESIAN_POINT('',(3.733565469,0.2932523521,-0.5332749144));
#225=CARTESIAN_POINT('',(3.8892104283,0.3680543354,-0.2636899369));
#226=CARTESIAN_POINT('',(4.0415673544,0.4560251871,0.0002));
#227=B_SPLINE_CURVE_WITH_KNOTS('',3,(#217,#218,#219,#220,#221,#222,#223,#224,#225,#226),.UNSPECIFIED.,.F.,.U.,
 (4,2,2,2,4),(0.0,0.2673495632,0.5346991263,0.7673495632,1.0),.UNSPECIFIED.);
#228=EDGE_CURVE('n° 144',#216,#185,#227,.T.);
#229=ORIENTED_EDGE('',*,*,#228,.F.);
#230=CARTESIAN_POINT('',(2.0207259422,25.0,-3.5));
#231=DIRECTION('',(0.0,-1.0,0.0));
#232=VECTOR('',#231,1.0);
#233=LINE('',#230,#232);
#234=EDGE_CURVE('n° 242',#75,#216,#233,.T.);
#235=ORIENTED_EDGE('',*,*,#234,.F.);
#236=ORIENTED_EDGE('',*,*,#87,.F.);
#237=EDGE_LOOP('',(#214,#229,#235,#236));
#238=FACE_OUTER_BOUND('',#237,.T.);
#239=CARTESIAN_POINT('',(2.0207259422,25.0,-3.5));
#240=DIRECTION('',(0.8660254038,0.0,-0.5));
#241=DIRECTION('',(-0.5,0.0,-0.8660254038));
#242=AXIS2_PLACEMENT_3D('',#239,#240,#241);
#243=PLANE('',#242);
#244=ADVANCED_FACE('n° 356',(#238),#243,.T.);
#245=ORIENTED_EDGE('',*,*,#234,.T.);
#246=CARTESIAN_POINT('',(-2.0207259422,0.4559585176,-3.5));
#247=VERTEX_POINT('',#246);
#248=CARTESIAN_POINT('',(-2.0207259422,0.4559585176,-3.5));
#249=CARTESIAN_POINT('',(-1.8519260215,0.4072301778,-3.5));
#250=CARTESIAN_POINT('',(-1.6783396296,0.3618270007,-3.5));
#251=CARTESIAN_POINT('',(-1.1714879963,0.2460964706,-3.5));
#252=CARTESIAN_POINT('',(-0.8266869292,0.1896581193,-3.5));
#253=CARTESIAN_POINT('',(-0.1404184193,0.1354326364,-3.5));
#254=CARTESIAN_POINT('',(0.2095729205,0.1375075584,-3.5));
#255=CARTESIAN_POINT('',(1.0478311823,0.2129564706,-3.5));
#256=CARTESIAN_POINT('',(1.5427980474,0.3179926182,-3.5));
#257=CARTESIAN_POINT('',(2.0207259422,0.4559585176,-3.5));
#258=B_SPLINE_CURVE_WITH_KNOTS('',3,(#248,#249,#250,#251,#252,#253,#254,#255,#256,#257),.UNSPECIFIED.,.F.,.U.,
 (4,2,2,2,4),(0.0,0.1290392662,0.3818434073,0.6346475485,1.0),.UNSPECIFIED.);
#259=EDGE_CURVE('n° 140',#247,#216,#258,.T.);
#260=ORIENTED_EDGE('',*,*,#259,.F.);
#261=CARTESIAN_POINT('',(-2.0207259422,25.0,-3.5));
#262=DIRECTION('',(0.0,-1.0,0.0));
#263=VECTOR('',#262,1.0);
#264=LINE('',#261,#263);
#265=EDGE_CURVE('n° 245',#90,#247,#264,.T.);
#266=ORIENTED_EDGE('',*,*,#265,.F.);
#267=ORIENTED_EDGE('',*,*,#102,.F.);
#268=EDGE_LOOP('',(#245,#260,#266,#267));
#269=FACE_OUTER_BOUND('',#268,.T.);
#270=CARTESIAN_POINT('',(-2.0207259422,25.0,-3.5));
#271=DIRECTION('',(0.0,0.0,-1.0));
#272=DIRECTION('',(-1.0,0.0,-0.0));
#273=AXIS2_PLACEMENT_3D('',#270,#271,#272);
#274=PLANE('',#273);
#275=ADVANCED_FACE('n° 360',(#269),#274,.T.);
#276=ORIENTED_EDGE('',*,*,#265,.T.);
#277=CARTESIAN_POINT('',(-4.0414518843,0.4559585176,0.0));
#278=VERTEX_POINT('',#277);
#279=CARTESIAN_POINT('',(-4.0415673544,0.4560251871,0.0002));
#280=CARTESIAN_POINT('',(-3.8664868422,0.3549337424,-0.3030483425));
#281=CARTESIAN_POINT('',(-3.6866410913,0.2711177253,-0.6145503206));
#282=CARTESIAN_POINT('',(-3.3262833852,0.1620389129,-1.2387081765));
#283=CARTESIAN_POINT('',(-3.1414746223,0.1364279895,-1.5588063436));
#284=CARTESIAN_POINT('',(-2.8007600842,0.1525546823,-2.1489412343));
#285=CARTESIAN_POINT('',(-2.6411801693,0.185720672,-2.4253417549));
#286=CARTESIAN_POINT('',(-2.3286123575,0.2932523521,-2.9667250856));
#287=CARTESIAN_POINT('',(-2.1729673982,0.3680543354,-3.2363100631));
#288=CARTESIAN_POINT('',(-2.0206104721,0.4560251871,-3.5002));
#289=B_SPLINE_CURVE_WITH_KNOTS('',3,(#279,#280,#281,#282,#283,#284,#285,#286,#287,#288),.UNSPECIFIED.,.F.,.U.,
 (4,2,2,2,4),(0.0,0.2673495632,0.5346991263,0.7673495632,1.0),.UNSPECIFIED.);
#290=EDGE_CURVE('n° 136',#278,#247,#289,.T.);
#291=ORIENTED_EDGE('',*,*,#290,.F.);
#292=CARTESIAN_POINT('',(-4.0414518843,25.0,0.0));
#293=DIRECTION('',(0.0,-1.0,-0.0));
#294=VECTOR('',#293,1.0);
#295=LINE('',#292,#294);
#296=EDGE_CURVE('n° 248',#28,#278,#295,.T.);
#297=ORIENTED_EDGE('',*,*,#296,.F.);
#298=ORIENTED_EDGE('',*,*,#115,.F.);
#299=EDGE_LOOP('',(#276,#291,#297,#298));
#300=FACE_OUTER_BOUND('',#299,.T.);
#301=CARTESIAN_POINT('',(-2.0207259422,25.0,-3.5));
#302=DIRECTION('',(-0.8660254038,0.0,-0.5));
#303=DIRECTION('',(-0.5,0.0,0.8660254038));
#304=AXIS2_PLACEMENT_3D('',#301,#302,#303);
#305=PLANE('',#304);
#306=ADVANCED_FACE('n° 364',(#300),#305,.T.);
#307=ORIENTED_EDGE('',*,*,#296,.T.);
#308=CARTESIAN_POINT('',(-2.0206104721,0.4560251871,3.5002));
#309=CARTESIAN_POINT('',(-2.1956909843,0.3549337424,3.1969516575));
#310=CARTESIAN_POINT('',(-2.3755367352,0.2711177253,2.8854496794));
#311=CARTESIAN_POINT('',(-2.7358944413,0.1620389129,2.2612918235));
#312=CARTESIAN_POINT('',(-2.9207032042,0.1364279895,1.9411936564));
#313=CARTESIAN_POINT('',(-3.2614177423,0.1525546823,1.3510587657));
#314=CARTESIAN_POINT('',(-3.4209976572,0.185720672,1.0746582451));
#315=CARTESIAN_POINT('',(-3.733565469,0.2932523521,0.5332749144));
#316=CARTESIAN_POINT('',(-3.8892104283,0.3680543354,0.2636899369));
#317=CARTESIAN_POINT('',(-4.0415673544,0.4560251871,-0.0002));
#318=B_SPLINE_CURVE_WITH_KNOTS('',3,(#308,#309,#310,#311,#312,#313,#314,#315,#316,#317),.UNSPECIFIED.,.F.,.U.,
 (4,2,2,2,4),(0.0,0.2673495632,0.5346991263,0.7673495632,1.0),.UNSPECIFIED.);
#319=EDGE_CURVE('n° 132',#146,#278,#318,.T.);
#320=ORIENTED_EDGE('',*,*,#319,.F.);
#321=ORIENTED_EDGE('',*,*,#151,.F.);
#322=ORIENTED_EDGE('',*,*,#42,.F.);
#323=EDGE_LOOP('',(#307,#320,#321,#322));
#324=FACE_OUTER_BOUND('',#323,.T.);
#325=CARTESIAN_POINT('',(-2.0207259422,25.0,3.5));
#326=DIRECTION('',(-0.8660254038,0.0,0.5));
#327=DIRECTION('',(0.5,0.0,0.8660254038));
#328=AXIS2_PLACEMENT_3D('',#325,#326,#327);
#329=PLANE('',#328);
#330=ADVANCED_FACE('n° 368',(#324),#329,.T.);
#331=CARTESIAN_POINT('',(0.0,0.0,2.0));
#332=VERTEX_POINT('',#331);
#333=CARTESIAN_POINT('',(0.0,0.0,0.0));
#334=DIRECTION('',(-0.0,1.0,-0.0));
#335=DIRECTION('',(0.0,0.0,1.0));
#336=AXIS2_PLACEMENT_3D('',#333,#334,#335);
#337=CIRCLE('',#336,2.0);
#338=EDGE_CURVE('n° 553',#332,#332,#337,.T.);
#339=ORIENTED_EDGE('',*,*,#338,.T.);
#340=EDGE_LOOP('',(#339));
#341=FACE_OUTER_BOUND('',#340,.T.);
#342=CARTESIAN_POINT('',(0.0,-0.0,-3.2517085657));
#343=VERTEX_POINT('',#342);
#344=CARTESIAN_POINT('',(0.0,-0.0,0.0));
#345=DIRECTION('',(-0.0,-1.0,-0.0));
#346=DIRECTION('',(0.0,0.0,-1.0));
#347=AXIS2_PLACEMENT_3D('',#344,#345,#346);
#348=CIRCLE('',#347,3.2517085657);
#349=EDGE_CURVE('n° 49',#343,#343,#348,.T.);
#350=ORIENTED_EDGE('',*,*,#349,.T.);
#351=EDGE_LOOP('',(#350));
#352=FACE_BOUND('',#351,.T.);
#353=CARTESIAN_POINT('',(0.0,-0.0,0.0));
#354=DIRECTION('',(-0.0,-1.0,-0.0));
#355=DIRECTION('',(0.0,0.0,-1.0));
#356=AXIS2_PLACEMENT_3D('',#353,#354,#355);
#357=PLANE('',#356);
#358=ADVANCED_FACE('n° 52',(#341,#352),#357,.T.);
#359=ORIENTED_EDGE('',*,*,#349,.F.);
#360=EDGE_LOOP('',(#359));
#361=FACE_OUTER_BOUND('',#360,.T.);
#362=ORIENTED_EDGE('',*,*,#197,.T.);
#363=ORIENTED_EDGE('',*,*,#166,.T.);
#364=ORIENTED_EDGE('',*,*,#319,.T.);
#365=ORIENTED_EDGE('',*,*,#290,.T.);
#366=ORIENTED_EDGE('',*,*,#259,.T.);
#367=ORIENTED_EDGE('',*,*,#228,.T.);
#368=EDGE_LOOP('',(#362,#363,#364,#365,#366,#367));
#369=FACE_BOUND('',#368,.T.);
#370=CARTESIAN_POINT('',(0.0,-0.0,0.0));
#371=DIRECTION('',(0.0,1.0,0.0));
#372=DIRECTION('',(0.0,-0.0,1.0));
#373=AXIS2_PLACEMENT_3D('',#370,#371,#372);
#374=CONICAL_SURFACE('',#373,3.2517085657,1.0471975512);
#375=ADVANCED_FACE('n° 154',(#361,#369),#374,.T.);
#376=CARTESIAN_POINT('',(0.0,0.35,1.65));
#377=VERTEX_POINT('',#376);
#378=CARTESIAN_POINT('',(0.0,0.35,0.0));
#379=DIRECTION('',(-0.0,1.0,-0.0));
#380=DIRECTION('',(0.0,0.0,1.0));
#381=AXIS2_PLACEMENT_3D('',#378,#379,#380);
#382=CIRCLE('',#381,1.65);
#383=EDGE_CURVE('n° 548',#377,#377,#382,.T.);
#384=ORIENTED_EDGE('',*,*,#383,.F.);
#385=EDGE_LOOP('',(#384));
#386=FACE_OUTER_BOUND('',#385,.T.);
#387=CARTESIAN_POINT('',(0.0,24.65,1.65));
#388=VERTEX_POINT('',#387);
#389=CARTESIAN_POINT('',(0.0,24.65,0.0));
#390=DIRECTION('',(-0.0,1.0,-0.0));
#391=DIRECTION('',(0.0,0.0,1.0));
#392=AXIS2_PLACEMENT_3D('',#389,#390,#391);
#393=CIRCLE('',#392,1.65);
#394=EDGE_CURVE('n° 493',#388,#388,#393,.T.);
#395=ORIENTED_EDGE('',*,*,#394,.T.);
#396=EDGE_LOOP('',(#395));
#397=FACE_BOUND('',#396,.T.);
#398=CARTESIAN_POINT('',(0.0,25.0,0.0));
#399=DIRECTION('',(-0.0,1.0,-0.0));
#400=DIRECTION('',(0.0,0.0,1.0));
#401=AXIS2_PLACEMENT_3D('',#398,#399,#400);
#402=CYLINDRICAL_SURFACE('',#401,1.65);
#403=ADVANCED_FACE('n° 504',(#386,#397),#402,.F.);
#404=ORIENTED_EDGE('',*,*,#394,.F.);
#405=EDGE_LOOP('',(#404));
#406=FACE_OUTER_BOUND('',#405,.T.);
#407=ORIENTED_EDGE('',*,*,#132,.T.);
#408=EDGE_LOOP('',(#407));
#409=FACE_BOUND('',#408,.T.);
#410=CARTESIAN_POINT('',(0.0,25.0,0.0));
#411=DIRECTION('',(-0.0,1.0,-0.0));
#412=DIRECTION('',(0.0,0.0,1.0));
#413=AXIS2_PLACEMENT_3D('',#410,#411,#412);
#414=CONICAL_SURFACE('',#413,2.0,0.7853981634);
#415=ADVANCED_FACE('n° 509',(#406,#409),#414,.F.);
#416=ORIENTED_EDGE('',*,*,#383,.T.);
#417=EDGE_LOOP('',(#416));
#418=FACE_OUTER_BOUND('',#417,.T.);
#419=ORIENTED_EDGE('',*,*,#338,.F.);
#420=EDGE_LOOP('',(#419));
#421=FACE_BOUND('',#420,.T.);
#422=CARTESIAN_POINT('',(0.0,0.0,0.0));
#423=DIRECTION('',(0.0,-1.0,0.0));
#424=DIRECTION('',(0.0,0.0,1.0));
#425=AXIS2_PLACEMENT_3D('',#422,#423,#424);
#426=CONICAL_SURFACE('',#425,2.0,0.7853981634);
#427=ADVANCED_FACE('n° 570',(#418,#421),#426,.F.);
#428=CLOSED_SHELL('Spiegeln1',(
    #124,#144,#182,#213,#244,#275,#306,#330,#358,#375,
    #403,#415,#427));
#429=MANIFOLD_SOLID_BREP('Spiegeln1',#428);
#430=COLOUR_RGB('',0.48235,0.4902,0.49412);
#431=FILL_AREA_STYLE_COLOUR('',#430);
#432=FILL_AREA_STYLE('',(#431));
#433=SURFACE_STYLE_FILL_AREA(#432);
#434=SURFACE_SIDE_STYLE('',(#433));
#435=SURFACE_STYLE_USAGE(.BOTH.,#434);
#436=PRESENTATION_STYLE_ASSIGNMENT((#435));
#437=STYLED_ITEM('',(#436),#429);
#438=COLOUR_RGB('',0.83529,0.91765,0.95686);
#439=FILL_AREA_STYLE_COLOUR('',#438);
#440=FILL_AREA_STYLE('',(#439));
#441=SURFACE_STYLE_FILL_AREA(#440);
#442=SURFACE_SIDE_STYLE('',(#441));
#443=SURFACE_STYLE_USAGE(.BOTH.,#442);
#444=PRESENTATION_STYLE_ASSIGNMENT((#443));
#445=OVER_RIDING_STYLED_ITEM('',(#444),#124,#437);
#446=OVER_RIDING_STYLED_ITEM('',(#444),#144,#437);
#447=OVER_RIDING_STYLED_ITEM('',(#444),#182,#437);
#448=OVER_RIDING_STYLED_ITEM('',(#444),#213,#437);
#449=OVER_RIDING_STYLED_ITEM('',(#444),#244,#437);
#450=OVER_RIDING_STYLED_ITEM('',(#444),#275,#437);
#451=OVER_RIDING_STYLED_ITEM('',(#444),#306,#437);
#452=OVER_RIDING_STYLED_ITEM('',(#444),#330,#437);
#453=OVER_RIDING_STYLED_ITEM('',(#444),#358,#437);
#454=OVER_RIDING_STYLED_ITEM('',(#444),#375,#437);
#455=OVER_RIDING_STYLED_ITEM('',(#444),#403,#437);
#456=OVER_RIDING_STYLED_ITEM('',(#444),#415,#437);
#457=OVER_RIDING_STYLED_ITEM('',(#444),#427,#437);
#458=CARTESIAN_POINT('',(0.,0.,0.));
#459=DIRECTION('',(0.,0.,1.));
#460=DIRECTION('',(1.,0.,0.));
#461=AXIS2_PLACEMENT_3D('Reference Axes',#458,#459,#460);
#462=ADVANCED_BREP_SHAPE_REPRESENTATION('',(#461,#429),#5);
#463=SHAPE_DEFINITION_REPRESENTATION(#12,#462);
#464=MECHANICAL_DESIGN_GEOMETRIC_PRESENTATION_REPRESENTATION('',(
    #437,#445,#446,#447,#448,#449,#450,#451,#452,#453,
    #454,#455,#456,#457),#5);
ENDSEC;
END-ISO-10303-21;
